<?xml version="1.0" standalone="no"?><!DOCTYPE svg PUBLIC "-//W3C//DTD SVG 1.1//EN" "http://www.w3.org/Graphics/SVG/1.1/DTD/svg11.dtd"><svg t="1714109632226" class="icon" viewBox="0 0 1024 1024" version="1.1" xmlns="http://www.w3.org/2000/svg" p-id="3828" xmlns:xlink="http://www.w3.org/1999/xlink" width="200" height="200"><path d="M960 512c0 248-201.6 448-448 446.4-248 0-448-201.6-448-448C65.6 264 267.2 64 513.6 64 758.4 65.6 960 267.2 960 512z m-244.8-99.2c-12.8 0-25.6-1.6-36.8-1.6-9.6 0-20.8 0-30.4-1.6-16-1.6-30.4 0-44.8 8-9.6 4.8-17.6 12.8-25.6 17.6-4.8 3.2-9.6 6.4-16 9.6-9.6 4.8-12.8 1.6-17.6-8-1.6-4.8-1.6-9.6 3.2-11.2 3.2-3.2 8-6.4 12.8-8 4.8-3.2 9.6-4.8 14.4-6.4 0-1.6 0-1.6-1.6-1.6-8-8-17.6-14.4-27.2-19.2-17.6-8-32-4.8-44.8 11.2-8 9.6-12.8 22.4-16 35.2 0 1.6 0 3.2-1.6 3.2-4.8 6.4-12.8 4.8-16-1.6-3.2-8-8-16-14.4-22.4-9.6-9.6-22.4-12.8-36.8-14.4-17.6-1.6-36.8 0-54.4 1.6-20.8 1.6-40 3.2-60.8 4.8h-6.4c8 8 14.4 12.8 24 17.6 14.4 6.4 30.4 9.6 44.8 12.8 6.4 1.6 11.2 6.4 12.8 11.2 0 3.2-1.6 6.4-4.8 6.4-12.8 0-24-1.6-36.8-1.6h-11.2c0 1.6 1.6 1.6 1.6 3.2 8 14.4 19.2 24 35.2 28.8 9.6 1.6 17.6 4.8 27.2 6.4 6.4 1.6 12.8 6.4 16 12.8h-46.4v3.2c3.2 12.8 11.2 20.8 24 24 8 3.2 14.4 4.8 22.4 8 4.8 1.6 9.6 6.4 12.8 12.8h-28.8c4.8 9.6 9.6 17.6 17.6 25.6 8 6.4 16 8 25.6 9.6 6.4 1.6 6.4 1.6 6.4 6.4 0 3.2-1.6 3.2-3.2 3.2-6.4 0-12.8 1.6-19.2 1.6 1.6 6.4 4.8 12.8 9.6 17.6 11.2 9.6 24 14.4 38.4 14.4 0 4.8 1.6 9.6 1.6 12.8l-1.6 1.6c-3.2 1.6-6.4 1.6-9.6 3.2 19.2 27.2 36.8 54.4 56 81.6 19.2-25.6 38.4-51.2 57.6-78.4-3.2-3.2-6.4-4.8-9.6-6.4l-1.6-1.6v-16c9.6 0 19.2 0 27.2-4.8s12.8-12.8 16-20.8c-3.2 0-6.4-1.6-9.6-1.6h-9.6c-1.6 0-3.2-1.6-1.6-3.2 4.8-4.8 9.6-8 16-9.6 4.8-1.6 9.6-1.6 12.8-4.8 14.4-6.4 24-19.2 33.6-30.4h-27.2c-3.2 0-8-3.2-9.6-6.4-1.6-3.2 0-4.8 3.2-4.8h4.8c17.6-3.2 33.6-8 44.8-20.8 4.8-4.8 9.6-11.2 11.2-19.2h-3.2c-12.8 0-24 0-36.8-1.6-3.2 0-6.4-1.6-8-4.8 0-3.2 0-4.8 4.8-4.8h8c20.8-1.6 38.4-8 56-19.2 4.8-3.2 9.6-6.4 12.8-9.6-17.6-1.6-36.8-1.6-54.4-3.2 1.6-4.8 4.8-6.4 8-8 8-3.2 14.4-4.8 22.4-8 9.6-3.2 19.2-4.8 27.2-11.2 4.8-8 9.6-12.8 11.2-19.2z m-500.8-14.4c3.2 1.6 4.8 3.2 6.4 3.2 3.2 3.2 4.8 6.4 8 11.2 4.8-1.6 6.4-6.4 3.2-11.2-1.6-3.2-4.8-6.4-8-9.6-4.8-4.8-8-9.6-12.8-12.8-1.6-1.6-3.2-4.8-3.2-6.4 0-6.4 0-12.8 1.6-17.6v-4.8c11.2 6.4 19.2 17.6 28.8 24 3.2-4.8 1.6-8-1.6-12.8l-9.6-14.4c-1.6-3.2-1.6-6.4 0-8 3.2-1.6 6.4-1.6 8 0 8 6.4 16 12.8 22.4 19.2 3.2 3.2 8 6.4 11.2 9.6h1.6v-6.4c-1.6-8-6.4-14.4-12.8-20.8-6.4-8-14.4-16-20.8-22.4-1.6-1.6-1.6-3.2-1.6-3.2 0-3.2-1.6-6.4-4.8-4.8-3.2 0-8 0-11.2 1.6-3.2 0-4.8 3.2-3.2 8 1.6 3.2 3.2 6.4 4.8 8 1.6 1.6 1.6 3.2 0 4.8-1.6 1.6-3.2 3.2-4.8 1.6-1.6-1.6-4.8-3.2-6.4-4.8-3.2-1.6-3.2-4.8-3.2-8 1.6-4.8 3.2-11.2 3.2-16 0-4.8-3.2-6.4-6.4-8v3.2c0 8-3.2 14.4-11.2 16-3.2 1.6-6.4 1.6-9.6 3.2l9.6 9.6c4.8 4.8 11.2 8 11.2 16v16c0 1.6-1.6 3.2-3.2 3.2-1.6 1.6-4.8 0-4.8-3.2-3.2-4.8-3.2-6.4-3.2-9.6 0-3.2-1.6-4.8-4.8-6.4-6.4-3.2-12.8-4.8-20.8-3.2-1.6 0-3.2 1.6-6.4 1.6l17.6 17.6c4.8 3.2 6.4 8 3.2 12.8-1.6 3.2-1.6 4.8 3.2 6.4 1.6 0 3.2 0 3.2-1.6 1.6-1.6 3.2-1.6 3.2-3.2 3.2 1.6 4.8 3.2 6.4 4.8 0 0 1.6 1.6 1.6 3.2 0 8 0 17.6-3.2 25.6-3.2 4.8-4.8 6.4-8 1.6l-6.4-6.4h-1.6c3.2 8 4.8 17.6 8 25.6 4.8 14.4 9.6 28.8 9.6 44.8 0 0 0 1.6 1.6 1.6 8 4.8 17.6 9.6 27.2 8 1.6 0 3.2-1.6 3.2-1.6 0-3.2 1.6-4.8-1.6-8-14.4-9.6-22.4-25.6-28.8-41.6 0-1.6 0-3.2 1.6-3.2l9.6-4.8c1.6 0 1.6-1.6 1.6-3.2v-11.2c3.2-4.8 3.2-8 3.2-12.8z m593.6-32c6.4 0 11.2 1.6 16 1.6 1.6 0 4.8 1.6 6.4 1.6 4.8 3.2 9.6 6.4 14.4 6.4l1.6 1.6c0 1.6 0 4.8-1.6 6.4-1.6 1.6-3.2 3.2-4.8 1.6-9.6-4.8-20.8-9.6-30.4-14.4l-19.2-9.6c-1.6-1.6-4.8 0-6.4 1.6-1.6 1.6-1.6 3.2 0 4.8 1.6 3.2 4.8 8 6.4 11.2 1.6 3.2 3.2 4.8 6.4 4.8 12.8 1.6 24 3.2 35.2 8 4.8 1.6 8 3.2 12.8 4.8v1.6h-3.2c-4.8-1.6-9.6-1.6-14.4-3.2-3.2 0-4.8 0-8-1.6v1.6c1.6 1.6 3.2 1.6 4.8 3.2 3.2 1.6 8 1.6 11.2 3.2 8 3.2 14.4 6.4 20.8 9.6 1.6 1.6 3.2 0 4.8-1.6 1.6-1.6 3.2-3.2 4.8-6.4 3.2-3.2 6.4-6.4 11.2-4.8 6.4 1.6 12.8 1.6 19.2 1.6 3.2 0 4.8-1.6 4.8-4.8 0-1.6 1.6-4.8 1.6-6.4 0-1.6 0-3.2-1.6-4.8-1.6-1.6-4.8-3.2-6.4-4.8-1.6-1.6-1.6-3.2-1.6-4.8 0-1.6 3.2-1.6 4.8-1.6h14.4c1.6 0 1.6 0 3.2-1.6 3.2-1.6 8-12.8 6.4-16 0-1.6-1.6-3.2-3.2-1.6-8 1.6-17.6 3.2-25.6 6.4-4.8 1.6-8 0-9.6-3.2-1.6-1.6-6.4-1.6-8 0-1.6 4.8-6.4 6.4-11.2 8-1.6 0-4.8 1.6-6.4-1.6-1.6-4.8-4.8-4.8-8 0-1.6 1.6-1.6 3.2-3.2 3.2 0 0-1.6 1.6-3.2 1.6h-6.4c-1.6 0-3.2 0-4.8-1.6 0-1.6 0-3.2 1.6-3.2 4.8-6.4 9.6-14.4 14.4-20.8 1.6-3.2 3.2-8 3.2-12.8-4.8 0-4.8 0-9.6 3.2l-17.6 17.6c-3.2 3.2-8 6.4-12.8 11.2 0 0-1.6 1.6-3.2 4.8zM691.2 150.4c-1.6 3.2-4.8 4.8-4.8 8l-9.6 28.8c-3.2 8-4.8 16-6.4 24-1.6 4.8-4.8 9.6-11.2 9.6-8 1.6-17.6 3.2-25.6 4.8-9.6 1.6-19.2 4.8-28.8-1.6-1.6 3.2-3.2 4.8-3.2 8-1.6 4.8 8 16 12.8 17.6h6.4c4.8-1.6 9.6-4.8 14.4-6.4 6.4-1.6 11.2-3.2 17.6-6.4 0 0 0 1.6 1.6 1.6-3.2 12.8-17.6 17.6-27.2 27.2 6.4 0 12.8-1.6 19.2-4.8 11.2-4.8 17.6-12.8 24-24 3.2-6.4 9.6-11.2 16-12.8 4.8-1.6 9.6-4.8 16-6.4 3.2-1.6 3.2-3.2 3.2-6.4 0-1.6-1.6-3.2-3.2-3.2s-1.6 0-3.2 1.6-3.2 3.2-4.8 3.2c-1.6 1.6-4.8 3.2-6.4 1.6-1.6-1.6 0-4.8 0-6.4 4.8-6.4 8-12.8 12.8-19.2 1.6-1.6 1.6-4.8 1.6-6.4 0-6.4-1.6-12.8-1.6-19.2-3.2-4.8-4.8-9.6-9.6-12.8z m-89.6 744s-1.6 0 0 0c-1.6 0-1.6-1.6-3.2-3.2L560 833.6c0-1.6-1.6-3.2-3.2-3.2-3.2 0-4.8 0-8 1.6 3.2 28.8 6.4 57.6 11.2 88 3.2 0 6.4 0 8-1.6-3.2-22.4-4.8-44.8-8-67.2 1.6 0 1.6 1.6 3.2 3.2 11.2 17.6 24 35.2 35.2 54.4 3.2 4.8 6.4 8 12.8 4.8-3.2-28.8-6.4-57.6-11.2-86.4h-6.4c-1.6 0-3.2 0-1.6 3.2 1.6 8 1.6 16 3.2 24 3.2 12.8 4.8 27.2 6.4 40z m-236.8-11.2v-1.6c1.6-11.2 1.6-24 3.2-35.2 1.6-11.2 1.6-22.4 3.2-35.2 0-1.6 0-3.2-1.6-3.2-1.6-1.6-4.8-3.2-6.4-3.2-16 25.6-32 51.2-46.4 75.2 3.2 1.6 4.8 3.2 8 4.8 12.8-19.2 24-38.4 36.8-57.6v16c-1.6 17.6-3.2 35.2-4.8 51.2-1.6 6.4 1.6 9.6 6.4 11.2 16-25.6 30.4-49.6 46.4-75.2-3.2-1.6-4.8-3.2-8-4.8-12.8 19.2-24 38.4-36.8 57.6z m-190.4-140.8c9.6-4.8 19.2-8 28.8-12.8 4.8 11.2 11.2 20.8 16 32l9.6-4.8c-4.8-11.2-11.2-20.8-16-32 8-4.8 17.6-8 25.6-11.2 6.4 11.2 11.2 22.4 17.6 33.6l9.6-4.8c-6.4-14.4-14.4-27.2-20.8-41.6-27.2 12.8-56 25.6-83.2 38.4 8 14.4 14.4 28.8 22.4 43.2l9.6-4.8c-8-11.2-12.8-22.4-19.2-35.2z m-40-51.2c12.8-6.4 25.6-11.2 38.4-17.6 4.8 9.6 9.6 19.2 14.4 30.4-12.8 6.4-25.6 11.2-40 17.6 1.6 3.2 3.2 4.8 3.2 8 27.2-12.8 56-25.6 83.2-38.4-1.6-3.2-3.2-4.8-3.2-8-11.2 4.8-22.4 9.6-33.6 16-4.8-9.6-9.6-19.2-14.4-30.4 11.2-4.8 22.4-11.2 33.6-16-1.6-3.2-3.2-4.8-3.2-8-27.2 12.8-56 25.6-83.2 38.4 3.2 3.2 3.2 4.8 4.8 8z m59.2-60.8c-8 0-16-1.6-24-1.6-17.6-1.6-35.2-1.6-52.8-3.2-6.4 0-11.2 1.6-16 4.8 8 16 17.6 32 25.6 46.4l9.6-4.8c-6.4-12.8-14.4-25.6-20.8-38.4 3.2 0 6.4 0 9.6 1.6l62.4 4.8c8 0 14.4 1.6 20.8-4.8-8-14.4-16-27.2-24-41.6l-9.6 4.8c8 9.6 12.8 20.8 19.2 32z m619.2-236.8c-1.6 1.6-4.8 3.2-6.4 4.8-1.6 1.6-4.8 1.6-6.4 0-11.2-6.4-22.4-12.8-32-20.8-3.2-1.6-4.8-3.2-8-4.8-3.2-1.6-6.4 0-6.4 3.2-1.6 9.6 3.2 17.6 12.8 19.2 3.2 0 8 1.6 11.2 3.2 4.8 1.6 8 3.2 11.2 4.8v1.6c-3.2 3.2-6.4 4.8-8 8-6.4 4.8-8 4.8-12.8 0-1.6-1.6-3.2-3.2-4.8-3.2-1.6 0-3.2 0-3.2 1.6v3.2c1.6 4.8 3.2 9.6 6.4 14.4 1.6 3.2 4.8 6.4 8 9.6 1.6 1.6 3.2 1.6 4.8 0 8-6.4 17.6-12.8 25.6-19.2 4.8-3.2 9.6-4.8 14.4-1.6 1.6 0 4.8-1.6 4.8-1.6 1.6-1.6 0-3.2-1.6-4.8-1.6-1.6-4.8-3.2-3.2-6.4-1.6-6.4-3.2-9.6-6.4-11.2zM768 833.6c1.6-1.6 3.2-3.2 6.4-4.8-8-11.2-16-20.8-24-32 11.2-8 11.2-9.6 24-3.2l24 14.4c1.6 0 3.2 1.6 3.2 0 1.6-1.6 3.2-3.2 6.4-4.8-6.4-4.8-12.8-8-19.2-12.8-6.4-3.2-12.8-8-20.8-9.6 6.4-8 4.8-14.4 1.6-22.4-3.2-6.4-8-11.2-14.4-16-6.4-3.2-11.2-4.8-17.6 0-8 4.8-14.4 9.6-22.4 16 17.6 28.8 35.2 51.2 52.8 75.2z m-316.8 33.6c0-1.6 1.6-4.8 1.6-6.4 0-8 0-14.4-4.8-20.8-8-9.6-22.4-9.6-32-1.6-16 14.4-25.6 33.6-25.6 56 0 8 1.6 16 8 20.8 8 8 17.6 6.4 27.2 4.8 4.8-1.6 9.6-4.8 11.2-11.2 0-1.6 1.6-3.2 1.6-4.8 3.2-6.4 4.8-12.8 8-19.2-8-3.2-14.4-6.4-22.4-8l-4.8 9.6c4.8 1.6 9.6 4.8 16 6.4-1.6 4.8-3.2 9.6-6.4 14.4l-1.6 1.6c-4.8 3.2-9.6 3.2-14.4 3.2-9.6-1.6-16-9.6-14.4-20.8 1.6-9.6 4.8-19.2 9.6-27.2 3.2-4.8 6.4-9.6 11.2-14.4 4.8-4.8 11.2-6.4 19.2-3.2 6.4 3.2 8 8 9.6 12.8 0 3.2 0 6.4-1.6 9.6 0-1.6 3.2-1.6 4.8-1.6z m347.2-145.6c-6.4-4.8-14.4-6.4-22.4-4.8-14.4 3.2-24 20.8-11.2 33.6 9.6 9.6 24 14.4 36.8 4.8 4.8-3.2 8-6.4 12.8-9.6 8-4.8 20.8 1.6 22.4 11.2 1.6 8-6.4 17.6-14.4 17.6-4.8 0-11.2-1.6-16-1.6 0 1.6-1.6 3.2-3.2 4.8 6.4 3.2 12.8 6.4 20.8 6.4 12.8 0 24-12.8 22.4-25.6-1.6-8-6.4-14.4-12.8-17.6-9.6-6.4-20.8-6.4-30.4 0-4.8 3.2-8 6.4-12.8 9.6-4.8 3.2-11.2 3.2-16 0-4.8-4.8-6.4-9.6-4.8-14.4 3.2-8 8-11.2 14.4-9.6 3.2 0 6.4 1.6 11.2 3.2 1.6-3.2 1.6-6.4 3.2-8z m-467.2 68.8c-25.6 17.6-51.2 36.8-76.8 54.4 3.2 1.6 4.8 3.2 8 4.8 8-4.8 16-11.2 22.4-16 8 4.8 14.4 11.2 22.4 16-3.2 6.4-4.8 12.8-8 17.6-3.2 8-3.2 8 3.2 12.8h1.6c11.2-28.8 24-57.6 35.2-84.8-3.2-1.6-4.8-3.2-8-4.8z m160 44.8V886.4c0 4.8 0 9.6 1.6 14.4 3.2 19.2 20.8 28.8 38.4 20.8 3.2-1.6 6.4-4.8 8-8 4.8-6.4 4.8-14.4 4.8-22.4v-52.8-3.2h-8v52.8c0 4.8 0 9.6-1.6 14.4-1.6 8-6.4 11.2-14.4 12.8-8 0-14.4-1.6-17.6-9.6-1.6-3.2-1.6-6.4-1.6-11.2v-52.8c-1.6-6.4-1.6-6.4-9.6-6.4z m-148.8-123.2l-19.2-19.2c-24-24-41.6-51.2-52.8-83.2-16-40-20.8-80-16-123.2 3.2-28.8 11.2-56 25.6-81.6 24-46.4 57.6-81.6 104-107.2 52.8-28.8 107.2-38.4 166.4-28.8 40 6.4 76.8 22.4 110.4 46.4 27.2 20.8 49.6 44.8 67.2 73.6 20.8 35.2 32 73.6 35.2 113.6 1.6 32-3.2 64-12.8 94.4-9.6 27.2-22.4 51.2-40 73.6-14.4 19.2-32 35.2-52.8 49.6-1.6 0-1.6 1.6-3.2 1.6 1.6 0 1.6 0 3.2-1.6 17.6-11.2 32-25.6 46.4-41.6 22.4-25.6 38.4-56 49.6-88 9.6-30.4 12.8-60.8 11.2-92.8-1.6-27.2-8-54.4-19.2-78.4-19.2-44.8-49.6-81.6-88-108.8-33.6-24-70.4-38.4-110.4-43.2-33.6-4.8-67.2-3.2-100.8 4.8-52.8 14.4-97.6 41.6-132.8 83.2-36.8 43.2-56 92.8-59.2 150.4-1.6 36.8 4.8 72 17.6 105.6 14.4 33.6 33.6 64 60.8 88 1.6 6.4 4.8 9.6 9.6 12.8z m331.2 164.8c-3.2-3.2-4.8-6.4-6.4-8-12.8-17.6-27.2-36.8-40-54.4 0-1.6-1.6-1.6-3.2-1.6s-3.2 1.6-6.4 3.2c19.2 24 38.4 49.6 56 73.6 3.2-1.6 4.8-1.6 8-3.2-4.8-30.4-8-60.8-12.8-91.2-1.6 1.6-3.2 1.6-6.4 1.6-1.6 0-1.6 1.6-1.6 3.2 4.8 25.6 9.6 49.6 12.8 76.8z m14.4-81.6c8-4.8 14.4-9.6 22.4-14.4-1.6-3.2-3.2-6.4-6.4-8-9.6 6.4-17.6 11.2-27.2 17.6 17.6 24 33.6 49.6 51.2 73.6 9.6-6.4 19.2-11.2 27.2-17.6-1.6-3.2-4.8-6.4-6.4-8-8 4.8-14.4 9.6-22.4 14.4-6.4-8-11.2-16-17.6-25.6 6.4-4.8 12.8-8 20.8-12.8-1.6-1.6-3.2-4.8-4.8-6.4-1.6-1.6-1.6-1.6-4.8-1.6-4.8 3.2-9.6 6.4-16 9.6h-3.2c-3.2-6.4-8-14.4-12.8-20.8z m233.6-169.6c-1.6 0-1.6 0-3.2-1.6-11.2-3.2-20.8-4.8-32-8-1.6 0-3.2-1.6-4.8-1.6-11.2-9.6-22.4-19.2-33.6-27.2-3.2-1.6-6.4-4.8-9.6-8 0 1.6-1.6 3.2-1.6 4.8-1.6 3.2 0 4.8 1.6 6.4 9.6 6.4 17.6 12.8 25.6 20.8 1.6 1.6 3.2 3.2 6.4 4.8-1.6 0-3.2 0-4.8 1.6l-38.4 4.8c-1.6 0-3.2 1.6-3.2 1.6-1.6 3.2-1.6 4.8-1.6 8h1.6c14.4-1.6 28.8-4.8 43.2-6.4 6.4 0 11.2-3.2 17.6-1.6 9.6 3.2 17.6 4.8 27.2 6.4 8 3.2 8 3.2 9.6-4.8z m-102.4 36.8c24 11.2 49.6 22.4 73.6 33.6 1.6-3.2 1.6-4.8 3.2-6.4-24-11.2-48-22.4-73.6-33.6 3.2-6.4 6.4-11.2 8-17.6l-9.6-4.8c-6.4 14.4-14.4 28.8-20.8 41.6l9.6 4.8c4.8-6.4 6.4-11.2 9.6-17.6zM446.4 193.6s1.6 0 0 0c1.6 0 3.2 0 4.8-1.6 1.6-1.6 4.8-3.2 6.4-4.8 1.6-1.6 3.2-1.6 3.2-3.2 3.2-4.8 8-9.6 11.2-14.4 1.6-1.6 1.6-3.2 1.6-6.4 0-6.4-4.8-14.4-9.6-16h-1.6c-8 3.2-17.6 6.4-25.6 8-1.6 0-1.6 1.6-1.6 1.6-3.2 8 0 19.2 9.6 20.8 1.6 0 3.2 1.6 3.2 3.2-1.6 4.8-1.6 9.6-1.6 12.8zM214.4 782.4c-3.2 3.2-6.4 6.4-8 11.2-3.2 6.4-4.8 12.8 0 17.6 4.8 6.4 11.2 9.6 19.2 6.4 6.4-1.6 11.2-6.4 16-9.6 11.2-9.6 22.4-20.8 33.6-32 4.8-3.2 8-8 12.8-11.2-1.6-1.6-3.2-4.8-6.4-6.4l-1.6 1.6c-11.2 11.2-24 22.4-35.2 33.6-4.8 4.8-11.2 9.6-16 14.4-4.8 3.2-9.6 3.2-12.8-1.6-3.2-3.2-3.2-6.4 0-11.2 1.6-1.6 3.2-4.8 4.8-6.4 0 0 0-1.6-1.6-1.6-1.6-3.2-3.2-3.2-4.8-4.8z m140.8-492.8c16-25.6 33.6-51.2 41.6-81.6l-1.6 1.6c-4.8 6.4-8 12.8-12.8 19.2-9.6 12.8-19.2 25.6-33.6 33.6-6.4 4.8-8 12.8-3.2 17.6 1.6 3.2 4.8 6.4 9.6 9.6z m107.2 476.8c3.2-3.2 8-4.8 11.2-8 4.8-4.8 4.8-9.6 0-14.4-4.8-4.8-9.6-6.4-16-6.4s-11.2 3.2-14.4 8c-3.2 6.4-1.6 11.2 3.2 16 1.6 1.6 3.2 3.2 4.8 6.4-3.2 1.6-6.4 3.2-8 6.4-8 6.4-8 17.6 1.6 24 6.4 3.2 12.8 4.8 19.2 1.6 9.6-3.2 12.8-14.4 8-22.4-4.8-4.8-8-8-9.6-11.2z m65.6 35.2s0 1.6 0 0c1.6 1.6 3.2 1.6 4.8 1.6 4.8-1.6 9.6-3.2 14.4-8 14.4-12.8 17.6-32 9.6-46.4-4.8-8-12.8-12.8-20.8-11.2-14.4 3.2-19.2 19.2-12.8 30.4 4.8 9.6 14.4 12.8 22.4 8 1.6-1.6 4.8-3.2 6.4-4.8h1.6c-1.6 4.8-1.6 9.6-4.8 12.8-4.8 9.6-11.2 16-20.8 17.6z m-224-32c-20.8 20.8-41.6 43.2-64 64 1.6 1.6 3.2 3.2 6.4 4.8 20.8-20.8 41.6-43.2 64-64-3.2-1.6-4.8-3.2-6.4-4.8z m484.8-75.2c27.2 14.4 54.4 27.2 81.6 41.6 1.6-3.2 3.2-4.8 3.2-6.4-27.2-14.4-54.4-27.2-81.6-41.6-1.6 1.6-3.2 3.2-3.2 6.4z m-153.6 204.8c1.6 0 1.6 0 3.2-1.6 4.8-1.6 4.8-1.6 3.2-6.4-4.8-16-11.2-30.4-16-46.4-3.2-11.2-8-22.4-11.2-32h-3.2c-6.4 1.6-4.8 1.6-3.2 6.4 6.4 16 11.2 33.6 17.6 49.6 1.6 11.2 4.8 20.8 9.6 30.4zM470.4 192c-14.4 1.6-25.6 12.8-40 12.8-1.6 6.4 3.2 12.8 14.4 20.8 1.6 0 3.2-1.6 3.2-1.6 8-6.4 14.4-12.8 20.8-22.4 1.6-3.2 3.2-6.4 1.6-9.6z m150.4 596.8c3.2-22.4 4.8-43.2 8-65.6-9.6 1.6-17.6 3.2-25.6 4.8-9.6 1.6-9.6 1.6-9.6 11.2v6.4c1.6 0 1.6 0 1.6-1.6 1.6-4.8 6.4-8 11.2-8 4.8 0 9.6-1.6 12.8-3.2h4.8c-1.6 19.2-4.8 38.4-6.4 57.6 0 0 1.6 0 3.2-1.6z m64-534.4c-3.2 4.8-3.2 9.6-1.6 14.4v12.8c0 3.2 0 4.8 3.2 4.8 1.6 1.6 4.8 1.6 6.4 3.2 3.2 1.6 11.2 0 11.2-4.8 1.6-11.2-6.4-24-19.2-30.4zM137.6 377.6c1.6-3.2 3.2-4.8 4.8-8 1.6-6.4 1.6-8-3.2-12.8-1.6-1.6-1.6-1.6-3.2-1.6s-3.2-1.6-4.8-1.6c-4.8 0-9.6 0-14.4 1.6-3.2 0-6.4 1.6-9.6 3.2 1.6 3.2 1.6 4.8 3.2 6.4 3.2 6.4 8 9.6 14.4 9.6 3.2 0 6.4 1.6 9.6 3.2 0-1.6 1.6 0 3.2 0z m249.6-224c6.4 0 11.2 1.6 16 1.6 1.6 0 1.6 0 3.2-1.6 3.2-4.8 3.2-11.2 0-16-3.2-4.8-8-9.6-12.8-14.4-1.6-1.6-3.2-1.6-6.4 0-3.2 3.2-1.6 8-1.6 12.8v11.2c1.6 1.6 1.6 4.8 1.6 6.4z m-35.2 608s0 1.6 0 0c6.4 4.8 12.8 9.6 20.8 11.2 0-1.6-1.6-1.6-1.6-1.6-3.2-1.6-3.2-3.2-1.6-6.4 0 0 0-1.6 1.6-1.6 6.4-11.2 12.8-20.8 19.2-32 3.2-4.8 4.8-9.6 8-14.4-6.4 0-12.8 0-19.2-1.6v1.6h1.6c6.4 1.6 6.4 3.2 3.2 8-6.4 11.2-12.8 24-20.8 35.2-3.2 4.8-3.2 4.8-11.2 1.6 1.6 0 1.6 0 0 0zM156.8 390.4c-3.2 0-8 0-11.2 1.6-4.8 1.6-4.8 4.8-1.6 8 1.6 1.6 3.2 3.2 4.8 3.2 3.2 1.6 8 3.2 11.2 4.8 4.8 3.2 4.8 3.2 8-1.6 1.6-1.6 3.2-3.2 3.2-4.8-1.6-9.6 1.6-11.2-14.4-11.2 1.6 0 1.6 0 0 0z m217.6-188.8c6.4 0 11.2-1.6 16-4.8l1.6-1.6c0-4.8 0-8-3.2-12.8l-6.4-6.4c-3.2-3.2-6.4-3.2-8 1.6 0 1.6-1.6 3.2-1.6 4.8 1.6 6.4 1.6 12.8 1.6 19.2z m419.2 145.6c0 4.8 3.2 8 8 8 6.4-1.6 12.8-9.6 12.8-16 0-3.2 0-4.8-4.8-3.2-3.2 1.6-8 3.2-11.2 3.2-3.2 1.6-4.8 4.8-4.8 8z" fill="#FFFFFF" p-id="3829"></path><path d="M715.2 412.8c-3.2 6.4-6.4 11.2-11.2 14.4-8 6.4-17.6 8-27.2 11.2-8 1.6-14.4 4.8-22.4 8-3.2 1.6-6.4 3.2-8 8 19.2 1.6 36.8 1.6 54.4 3.2-4.8 3.2-8 6.4-12.8 9.6-17.6 11.2-36.8 17.6-56 19.2H624c-3.2 0-4.8 1.6-4.8 4.8 0 3.2 3.2 4.8 8 4.8 12.8 0 24 0 36.8 1.6h3.2c-3.2 8-6.4 14.4-11.2 19.2-12.8 12.8-28.8 19.2-44.8 20.8h-4.8c-3.2 0-4.8 1.6-3.2 4.8 1.6 3.2 4.8 6.4 9.6 6.4H640c-11.2 11.2-20.8 22.4-33.6 30.4-4.8 1.6-8 3.2-12.8 4.8-6.4 1.6-11.2 4.8-16 9.6-1.6 1.6-1.6 3.2 1.6 3.2h9.6c3.2 0 6.4 1.6 9.6 1.6-3.2 9.6-9.6 16-16 20.8-8 4.8-16 6.4-27.2 4.8v16l1.6 1.6c3.2 1.6 6.4 4.8 9.6 6.4-19.2 25.6-38.4 51.2-57.6 78.4-19.2-27.2-36.8-54.4-56-81.6 3.2-1.6 6.4-1.6 9.6-3.2 1.6 0 1.6-1.6 1.6-1.6 0-4.8 0-8-1.6-12.8-14.4 0-27.2-4.8-38.4-14.4-4.8-4.8-8-9.6-9.6-17.6 6.4 0 12.8-1.6 19.2-1.6 3.2 0 3.2-1.6 3.2-3.2 0-6.4 0-6.4-6.4-6.4-9.6-1.6-19.2-4.8-25.6-9.6-8-6.4-14.4-14.4-17.6-25.6H416c-3.2-6.4-6.4-9.6-12.8-12.8-8-3.2-14.4-6.4-22.4-8-12.8-4.8-20.8-11.2-24-24v-1.6-1.6h46.4c-3.2-6.4-9.6-11.2-16-12.8-8-3.2-17.6-4.8-27.2-6.4-16-4.8-28.8-12.8-35.2-28.8 0-1.6-1.6-1.6-1.6-3.2h11.2c12.8 0 24 1.6 36.8 1.6 3.2 0 4.8-3.2 4.8-6.4-1.6-6.4-6.4-11.2-12.8-11.2-16-3.2-30.4-4.8-44.8-12.8-8-4.8-16-9.6-24-17.6h6.4c20.8-1.6 40-3.2 60.8-4.8 17.6-1.6 36.8-3.2 54.4-1.6 12.8 1.6 25.6 4.8 36.8 14.4 6.4 6.4 11.2 14.4 14.4 22.4 3.2 6.4 11.2 8 16 1.6 0-1.6 1.6-3.2 1.6-3.2 3.2-12.8 6.4-25.6 16-35.2 11.2-14.4 27.2-17.6 44.8-11.2 11.2 4.8 19.2 11.2 27.2 19.2l1.6 1.6c-4.8 1.6-9.6 4.8-14.4 6.4-4.8 1.6-9.6 4.8-12.8 8-3.2 3.2-4.8 8-3.2 11.2 3.2 9.6 8 12.8 17.6 8 6.4-1.6 11.2-6.4 16-9.6 8-6.4 17.6-12.8 25.6-17.6 14.4-8 28.8-9.6 44.8-8 9.6 1.6 20.8 1.6 30.4 1.6 12.8 4.8 24 4.8 36.8 6.4zM214.4 398.4c0 4.8-1.6 8-1.6 11.2v11.2c0 1.6-1.6 3.2-1.6 3.2l-9.6 4.8c-1.6 0-1.6 1.6-1.6 3.2 6.4 16 14.4 30.4 28.8 41.6 3.2 3.2 1.6 4.8 1.6 8 0 0-1.6 1.6-3.2 1.6-9.6 1.6-19.2-3.2-27.2-8l-1.6-1.6c1.6-16-4.8-30.4-9.6-44.8-3.2-8-4.8-17.6-8-25.6h1.6c1.6 1.6 4.8 3.2 6.4 6.4 3.2 4.8 6.4 4.8 8-1.6 3.2-8 4.8-16 3.2-25.6 0-1.6 0-1.6-1.6-3.2s-4.8-3.2-6.4-4.8c-1.6 1.6-1.6 3.2-3.2 3.2s-3.2 1.6-3.2 1.6c-4.8 0-4.8-1.6-3.2-6.4 3.2-4.8 1.6-9.6-3.2-12.8-6.4-4.8-11.2-11.2-17.6-17.6 1.6-1.6 4.8-1.6 6.4-1.6 6.4-1.6 14.4 0 20.8 3.2 3.2 1.6 4.8 3.2 4.8 6.4 0 1.6 1.6 4.8 1.6 6.4 1.6 3.2 3.2 3.2 4.8 3.2 1.6 0 3.2-1.6 3.2-3.2v-16c0-8-6.4-11.2-11.2-16l-9.6-9.6c4.8-1.6 6.4-3.2 9.6-3.2 8-3.2 11.2-8 11.2-16v-3.2c3.2 0 6.4 3.2 6.4 8s-1.6 11.2-3.2 16c-1.6 3.2-1.6 6.4 3.2 8 1.6 1.6 4.8 3.2 6.4 4.8 1.6 1.6 3.2 0 4.8-1.6 1.6-1.6 1.6-3.2 0-4.8-1.6-3.2-3.2-4.8-4.8-8-1.6-3.2 0-6.4 3.2-8 3.2-1.6 8-1.6 11.2-1.6 3.2 0 4.8 1.6 4.8 4.8 0 1.6 0 3.2 1.6 3.2 6.4 8 14.4 16 20.8 22.4 6.4 6.4 11.2 12.8 12.8 20.8v6.4h-1.6c-3.2-3.2-8-6.4-11.2-9.6-8-6.4-16-12.8-22.4-19.2-3.2-1.6-6.4-3.2-8 0-1.6 1.6-3.2 4.8 0 8l9.6 14.4c3.2 3.2 4.8 8 1.6 12.8-9.6-8-16-19.2-28.8-24v4.8c0 6.4 0 12.8-1.6 17.6 0 3.2 0 4.8 3.2 6.4l12.8 12.8c3.2 3.2 6.4 6.4 8 9.6 3.2 4.8 1.6 9.6-3.2 11.2-3.2-3.2-4.8-8-8-11.2-1.6 4.8-3.2 3.2-6.4 1.6zM808 366.4c1.6-3.2 3.2-4.8 4.8-6.4 3.2-3.2 8-6.4 12.8-11.2 6.4-4.8 11.2-11.2 17.6-17.6 3.2-3.2 4.8-3.2 9.6-3.2 0 4.8 0 9.6-3.2 12.8-4.8 8-9.6 14.4-14.4 20.8 0 1.6-1.6 1.6-1.6 3.2 1.6 0 3.2 1.6 4.8 1.6h6.4c1.6 0 1.6 0 3.2-1.6s1.6-3.2 3.2-3.2c3.2-3.2 6.4-3.2 8 0 1.6 3.2 4.8 3.2 6.4 1.6 4.8-1.6 9.6-3.2 11.2-8 1.6-3.2 6.4-3.2 8 0 3.2 3.2 6.4 3.2 9.6 3.2 8-1.6 17.6-3.2 25.6-6.4 1.6 0 3.2 0 3.2 1.6 1.6 4.8-1.6 14.4-6.4 16-1.6 0-1.6 1.6-3.2 1.6h-14.4c-1.6 0-4.8 1.6-4.8 1.6 0 1.6 1.6 3.2 1.6 4.8 1.6 1.6 4.8 3.2 6.4 4.8 1.6 1.6 1.6 3.2 1.6 4.8 0 1.6-1.6 4.8-1.6 6.4 0 3.2-1.6 4.8-4.8 4.8-6.4 0-12.8 0-19.2-1.6-4.8-1.6-8 1.6-11.2 4.8-1.6 1.6-3.2 3.2-4.8 6.4-1.6 1.6-3.2 1.6-4.8 1.6-6.4-3.2-14.4-6.4-20.8-9.6-3.2-1.6-8-1.6-11.2-3.2-1.6 0-3.2-1.6-4.8-3.2v-1.6c3.2 0 4.8 0 8 1.6 4.8 1.6 9.6 1.6 14.4 3.2h3.2v-1.6c-4.8-1.6-8-3.2-12.8-4.8-11.2-4.8-24-8-35.2-8-3.2 0-6.4-1.6-6.4-4.8-1.6-4.8-3.2-8-6.4-11.2-1.6-1.6-1.6-3.2 0-4.8 1.6-1.6 3.2-1.6 6.4-1.6l19.2 9.6c9.6 4.8 20.8 9.6 30.4 14.4 3.2 1.6 4.8 0 4.8-1.6 1.6-1.6 1.6-4.8 1.6-6.4l-1.6-1.6c-4.8 0-9.6-3.2-14.4-6.4-1.6-1.6-3.2-1.6-6.4-1.6-6.4 1.6-11.2 0-17.6 0z m52.8 24v1.6c6.4-1.6 12.8-3.2 20.8-4.8 1.6 0 3.2-3.2 1.6-4.8l-4.8-9.6c-1.6-1.6-4.8 0-6.4-1.6h-3.2c-1.6 0-3.2 0-3.2 1.6-1.6 1.6-3.2 3.2-6.4 4.8 1.6 0 3.2 1.6 4.8 1.6 3.2 0 6.4-1.6 9.6 1.6 0 8-8 6.4-12.8 9.6zM691.2 150.4c4.8 3.2 6.4 8 6.4 12.8 1.6 6.4 1.6 12.8 1.6 19.2 0 1.6-1.6 4.8-1.6 6.4-4.8 6.4-8 12.8-12.8 19.2-1.6 1.6-3.2 4.8 0 6.4 1.6 1.6 4.8 0 6.4-1.6 1.6-1.6 3.2-3.2 4.8-3.2 1.6 0 3.2-1.6 3.2-1.6 1.6 0 3.2 1.6 3.2 3.2 1.6 3.2 0 4.8-3.2 6.4-4.8 1.6-9.6 4.8-16 6.4-6.4 3.2-12.8 6.4-16 12.8-4.8 9.6-12.8 17.6-24 24-6.4 3.2-11.2 4.8-19.2 4.8 9.6-9.6 22.4-12.8 27.2-27.2 0 0 0-1.6-1.6-1.6-6.4 1.6-11.2 3.2-17.6 6.4-4.8 1.6-9.6 4.8-14.4 6.4-1.6 0-4.8 1.6-6.4 0-4.8 0-14.4-12.8-12.8-17.6 0-3.2 3.2-4.8 3.2-8 9.6 6.4 19.2 3.2 28.8 1.6 8-1.6 17.6-3.2 25.6-4.8 6.4-1.6 9.6-4.8 11.2-9.6 3.2-8 4.8-16 6.4-24l9.6-28.8c4.8-3.2 6.4-4.8 8-8zM601.6 894.4c-1.6-12.8-3.2-27.2-4.8-40-1.6-8-1.6-16-3.2-24 0-1.6 0-3.2 1.6-3.2h6.4c3.2 28.8 6.4 57.6 11.2 86.4-6.4 1.6-9.6 0-12.8-4.8-11.2-17.6-24-36.8-35.2-54.4 0-1.6-1.6-1.6-3.2-3.2 3.2 22.4 4.8 44.8 8 67.2-3.2 0-4.8 0-8 1.6-3.2-28.8-6.4-59.2-11.2-88 3.2 0 4.8-1.6 8-1.6 1.6 0 1.6 1.6 3.2 3.2l38.4 57.6c-1.6 1.6 0 3.2 1.6 3.2-1.6 0 0 0 0 0zM364.8 883.2c11.2-19.2 24-38.4 35.2-57.6 3.2 1.6 4.8 3.2 8 4.8-16 25.6-32 51.2-46.4 75.2-4.8-1.6-8-4.8-6.4-11.2 1.6-17.6 3.2-35.2 4.8-51.2 0-4.8 1.6-11.2 0-16-11.2 19.2-24 38.4-36.8 57.6-3.2-1.6-4.8-3.2-8-4.8 16-25.6 32-51.2 46.4-75.2 1.6 1.6 4.8 1.6 6.4 3.2 1.6 0 1.6 3.2 1.6 3.2-1.6 11.2-1.6 22.4-3.2 35.2-1.6 11.2-1.6 24-3.2 35.2 1.6 0 1.6 1.6 1.6 1.6zM174.4 742.4c6.4 11.2 11.2 24 17.6 35.2l-9.6 4.8c-8-14.4-14.4-28.8-22.4-43.2 27.2-12.8 54.4-25.6 83.2-38.4 6.4 14.4 14.4 27.2 20.8 41.6l-9.6 4.8c-6.4-11.2-11.2-22.4-17.6-33.6-8 3.2-16 8-25.6 11.2 4.8 11.2 11.2 20.8 16 32l-9.6 4.8c-4.8-11.2-11.2-20.8-16-32-8 4.8-17.6 9.6-27.2 12.8zM134.4 691.2c-1.6-3.2-3.2-4.8-3.2-8 27.2-12.8 56-25.6 83.2-38.4 1.6 3.2 3.2 4.8 3.2 8-11.2 4.8-22.4 9.6-33.6 16 4.8 9.6 9.6 19.2 14.4 30.4 11.2-4.8 22.4-9.6 33.6-16 1.6 3.2 3.2 4.8 3.2 8-27.2 12.8-56 25.6-83.2 38.4-1.6-3.2-3.2-4.8-3.2-8 12.8-6.4 25.6-11.2 40-17.6-4.8-9.6-9.6-19.2-14.4-30.4-12.8 4.8-25.6 11.2-40 17.6zM193.6 630.4c-6.4-11.2-11.2-22.4-17.6-33.6l9.6-4.8c8 14.4 16 28.8 24 41.6-6.4 6.4-12.8 4.8-20.8 4.8l-62.4-4.8c-3.2 0-4.8 0-9.6-1.6 6.4 12.8 14.4 25.6 20.8 38.4l-9.6 4.8c-8-16-17.6-32-25.6-46.4 4.8-1.6 9.6-4.8 16-4.8 17.6 1.6 35.2 1.6 52.8 3.2 6.4 1.6 14.4 1.6 22.4 3.2zM812.8 393.6c3.2 3.2 4.8 4.8 4.8 9.6 0 3.2 1.6 4.8 3.2 6.4 1.6 1.6 3.2 3.2 1.6 4.8-1.6 1.6-3.2 1.6-4.8 1.6-4.8-3.2-9.6-1.6-14.4 1.6-8 6.4-17.6 12.8-25.6 19.2-1.6 1.6-3.2 1.6-4.8 0-3.2-3.2-4.8-6.4-8-9.6-1.6-4.8-4.8-9.6-6.4-14.4v-3.2c0-1.6 1.6-1.6 3.2-1.6s3.2 1.6 4.8 3.2c4.8 4.8 8 4.8 12.8 0 3.2-1.6 6.4-4.8 8-8v-1.6c-3.2-1.6-8-3.2-11.2-4.8-3.2-1.6-8-3.2-11.2-3.2-9.6-1.6-14.4-11.2-12.8-19.2 0-3.2 3.2-4.8 6.4-3.2 3.2 1.6 4.8 3.2 8 4.8 11.2 6.4 22.4 12.8 32 20.8 1.6 1.6 4.8 1.6 6.4 0 3.2 0 6.4-1.6 8-3.2zM768 833.6c-17.6-24-36.8-48-54.4-72 8-4.8 14.4-11.2 22.4-16 6.4-3.2 11.2-3.2 17.6 0 6.4 4.8 11.2 9.6 14.4 16 3.2 8 4.8 14.4-1.6 22.4 8 1.6 14.4 4.8 20.8 9.6 6.4 3.2 12.8 8 19.2 12.8-1.6 1.6-4.8 3.2-6.4 4.8h-3.2l-24-14.4c-11.2-6.4-12.8-6.4-24 3.2 8 9.6 16 20.8 24 32 0 0-1.6 0-4.8 1.6z m-24-43.2c4.8-3.2 8-4.8 11.2-8 6.4-4.8 8-9.6 4.8-16-1.6-1.6-3.2-4.8-4.8-6.4-3.2-3.2-8-6.4-11.2-4.8-6.4 3.2-12.8 8-17.6 11.2 6.4 8 11.2 16 17.6 24zM451.2 867.2h-6.4c0-3.2 1.6-6.4 1.6-9.6 0-6.4-3.2-11.2-9.6-12.8-6.4-3.2-12.8-1.6-19.2 3.2-4.8 4.8-8 9.6-11.2 14.4-4.8 8-8 17.6-9.6 27.2-1.6 11.2 4.8 19.2 14.4 20.8 4.8 1.6 9.6 0 14.4-3.2l1.6-1.6c1.6-4.8 3.2-9.6 6.4-14.4-4.8-1.6-9.6-4.8-16-6.4l4.8-9.6c8 3.2 14.4 4.8 22.4 8-3.2 6.4-4.8 12.8-8 19.2 0 1.6-1.6 3.2-1.6 4.8-1.6 6.4-4.8 8-11.2 11.2-9.6 3.2-19.2 3.2-27.2-4.8-6.4-6.4-8-12.8-8-20.8 1.6-22.4 9.6-40 25.6-56 9.6-8 24-8 32 1.6 4.8 6.4 4.8 12.8 4.8 20.8 1.6 4.8 1.6 6.4 0 8zM798.4 721.6c-1.6 1.6-1.6 4.8-3.2 6.4-3.2-1.6-8-1.6-11.2-3.2-6.4 0-11.2 3.2-14.4 9.6-1.6 4.8 0 9.6 4.8 14.4 4.8 3.2 11.2 4.8 16 0 4.8-3.2 8-6.4 12.8-9.6 9.6-6.4 20.8-6.4 30.4 0 6.4 4.8 12.8 9.6 12.8 17.6 1.6 12.8-9.6 25.6-22.4 25.6-8 0-14.4-1.6-20.8-6.4 1.6-1.6 1.6-4.8 3.2-4.8 6.4 1.6 11.2 1.6 16 1.6 8 0 16-9.6 14.4-17.6-1.6-9.6-14.4-16-22.4-11.2-4.8 3.2-9.6 6.4-12.8 9.6-12.8 9.6-27.2 4.8-36.8-4.8-12.8-12.8-3.2-32 11.2-33.6 8 0 16 1.6 22.4 6.4zM331.2 790.4c3.2 1.6 4.8 3.2 8 6.4-11.2 28.8-24 57.6-35.2 84.8h-1.6c-6.4-4.8-6.4-4.8-3.2-12.8 3.2-6.4 4.8-11.2 8-17.6-8-4.8-14.4-11.2-22.4-16-8 4.8-16 11.2-22.4 16-1.6-1.6-4.8-3.2-8-4.8 25.6-20.8 51.2-38.4 76.8-56z m-38.4 36.8c6.4 4.8 11.2 8 17.6 12.8 6.4-12.8 11.2-25.6 17.6-38.4-11.2 8-22.4 17.6-35.2 25.6zM491.2 835.2c8-1.6 8-1.6 8 6.4v52.8c0 3.2 1.6 8 1.6 11.2 3.2 6.4 8 9.6 17.6 9.6 8 0 12.8-4.8 14.4-12.8 1.6-4.8 1.6-9.6 1.6-14.4v-48-4.8h8v56c0 8 0 16-4.8 22.4-1.6 3.2-4.8 6.4-8 8-17.6 9.6-35.2 0-38.4-20.8 0-4.8-1.6-9.6-1.6-14.4v-46.4c1.6-1.6 1.6-3.2 1.6-4.8z" fill="#1A4D7B" p-id="3830"></path><path d="M342.4 712c-3.2-3.2-8-6.4-11.2-9.6-25.6-25.6-46.4-54.4-60.8-88-14.4-33.6-20.8-68.8-17.6-105.6 3.2-56 22.4-107.2 59.2-150.4 35.2-41.6 80-68.8 132.8-83.2 33.6-8 67.2-9.6 100.8-4.8 40 6.4 76.8 20.8 110.4 43.2 40 27.2 68.8 64 88 108.8 11.2 25.6 17.6 51.2 19.2 78.4 1.6 32-1.6 62.4-11.2 92.8-9.6 33.6-27.2 62.4-49.6 88-12.8 16-28.8 30.4-46.4 41.6 0 0-1.6 1.6-3.2 1.6 1.6 0 1.6-1.6 3.2-1.6 19.2-14.4 36.8-30.4 52.8-49.6 17.6-22.4 30.4-46.4 40-73.6 11.2-30.4 14.4-62.4 12.8-94.4-1.6-41.6-14.4-78.4-35.2-113.6-17.6-28.8-40-54.4-67.2-73.6-33.6-24-70.4-40-110.4-46.4-59.2-9.6-115.2 0-166.4 28.8-44.8 25.6-80 60.8-104 107.2-12.8 25.6-20.8 52.8-25.6 81.6-4.8 41.6 0 83.2 16 123.2 12.8 30.4 30.4 59.2 52.8 83.2 8 3.2 14.4 9.6 20.8 16zM673.6 876.8c-3.2-25.6-8-51.2-11.2-76.8 0-1.6 0-3.2 1.6-3.2s3.2-1.6 6.4-1.6c4.8 30.4 8 60.8 12.8 91.2-3.2 1.6-4.8 1.6-8 3.2-19.2-24-38.4-48-56-73.6 1.6-1.6 4.8-1.6 6.4-3.2 1.6 0 3.2 0 3.2 1.6 12.8 17.6 27.2 36.8 40 54.4 0 1.6 3.2 4.8 4.8 8zM688 795.2c4.8 8 9.6 14.4 14.4 20.8h3.2c4.8-3.2 11.2-6.4 16-9.6 1.6-1.6 3.2-1.6 4.8 1.6 1.6 1.6 3.2 3.2 4.8 6.4-6.4 4.8-12.8 8-20.8 12.8 6.4 8 11.2 16 17.6 25.6 8-4.8 14.4-9.6 22.4-14.4 1.6 3.2 3.2 4.8 6.4 8-9.6 6.4-17.6 11.2-27.2 17.6-17.6-24-33.6-49.6-51.2-73.6 9.6-6.4 17.6-11.2 27.2-17.6 1.6 3.2 3.2 6.4 6.4 8-9.6 4.8-17.6 9.6-24 14.4zM921.6 625.6c-1.6 8-1.6 8-9.6 6.4-9.6-1.6-17.6-4.8-27.2-6.4-6.4-1.6-11.2 0-17.6 1.6-14.4 1.6-28.8 4.8-43.2 6.4h-1.6c0-3.2 1.6-4.8 1.6-8 0-1.6 1.6-1.6 3.2-1.6l38.4-4.8c1.6 0 3.2 0 4.8-1.6-3.2-1.6-4.8-3.2-6.4-4.8-8-6.4-17.6-14.4-25.6-20.8-3.2-1.6-3.2-4.8-1.6-6.4 0-1.6 1.6-3.2 1.6-4.8 3.2 3.2 6.4 4.8 9.6 8 11.2 9.6 22.4 19.2 33.6 27.2 1.6 1.6 3.2 1.6 4.8 1.6 11.2 3.2 20.8 6.4 32 8 1.6-1.6 3.2 0 3.2 0zM819.2 662.4c-3.2 6.4-6.4 11.2-9.6 17.6l-9.6-4.8c6.4-14.4 14.4-28.8 20.8-41.6l9.6 4.8c-3.2 6.4-6.4 11.2-8 17.6 24 11.2 48 22.4 73.6 33.6-1.6 1.6-1.6 4.8-3.2 6.4-24-11.2-48-22.4-73.6-33.6zM446.4 193.6v-11.2c0-1.6 0-3.2-3.2-3.2-9.6-1.6-14.4-12.8-9.6-20.8 0-1.6 1.6-1.6 1.6-1.6 8-3.2 17.6-6.4 25.6-8h1.6c4.8 1.6 9.6 9.6 9.6 16 0 1.6-1.6 3.2-1.6 6.4-3.2 4.8-6.4 9.6-11.2 14.4l-3.2 3.2c-1.6 1.6-4.8 3.2-6.4 4.8h-3.2c1.6 0 0 0 0 0zM214.4 782.4c1.6 1.6 3.2 3.2 6.4 3.2l1.6 1.6c-1.6 1.6-3.2 4.8-4.8 6.4-3.2 4.8-3.2 8 0 11.2 3.2 3.2 8 4.8 12.8 1.6 6.4-4.8 11.2-9.6 16-14.4 12.8-11.2 24-22.4 35.2-33.6l1.6-1.6c1.6 1.6 3.2 4.8 6.4 6.4-3.2 3.2-8 8-12.8 11.2-11.2 11.2-22.4 20.8-33.6 32-4.8 4.8-9.6 8-16 9.6-8 3.2-14.4 0-19.2-6.4-4.8-6.4-3.2-12.8 0-17.6 0-3.2 3.2-6.4 6.4-9.6zM355.2 289.6c-3.2-3.2-6.4-6.4-9.6-8-4.8-6.4-3.2-14.4 3.2-17.6 14.4-8 24-20.8 33.6-33.6 4.8-6.4 8-12.8 12.8-19.2l1.6-1.6c-8 28.8-25.6 54.4-41.6 80zM462.4 766.4c3.2 3.2 6.4 6.4 8 9.6 6.4 9.6 3.2 19.2-8 22.4-6.4 1.6-12.8 1.6-19.2-1.6-9.6-6.4-9.6-17.6-1.6-24 3.2-1.6 4.8-3.2 8-6.4-1.6-1.6-3.2-3.2-4.8-6.4-4.8-4.8-6.4-9.6-3.2-16s8-9.6 14.4-8c6.4 0 12.8 1.6 16 6.4 3.2 4.8 3.2 11.2 0 14.4-3.2 4.8-6.4 6.4-9.6 9.6z m-9.6 3.2l-8 8c-3.2 4.8-3.2 9.6 0 16 3.2 4.8 6.4 4.8 11.2 4.8 6.4 0 11.2-8 8-14.4-3.2-4.8-6.4-9.6-11.2-14.4z m-4.8-20.8c0 4.8 1.6 8 4.8 9.6 6.4 6.4 8 6.4 12.8 0 3.2-3.2 4.8-11.2 1.6-14.4-3.2-3.2-8-4.8-12.8-3.2-3.2 1.6-6.4 4.8-6.4 8zM528 801.6c9.6-1.6 16-8 19.2-16 1.6-4.8 3.2-9.6 4.8-12.8h-1.6c-1.6 1.6-4.8 3.2-6.4 4.8-9.6 4.8-19.2 1.6-22.4-8-6.4-11.2 0-28.8 12.8-30.4 8-1.6 16 3.2 20.8 11.2 8 14.4 4.8 35.2-9.6 46.4-4.8 3.2-9.6 6.4-14.4 8 0-1.6-1.6-1.6-3.2-3.2 0 1.6 0 0 0 0z m-3.2-49.6c0 4.8 1.6 11.2 6.4 16 4.8 6.4 14.4 6.4 19.2 0v-1.6c0-8-1.6-14.4-6.4-20.8-3.2-4.8-8-6.4-12.8-4.8-3.2 1.6-6.4 4.8-6.4 11.2zM304 769.6c1.6 1.6 4.8 3.2 6.4 4.8-20.8 20.8-41.6 43.2-64 64-1.6-1.6-3.2-3.2-6.4-4.8 20.8-20.8 43.2-41.6 64-64zM788.8 694.4c1.6-3.2 3.2-4.8 3.2-6.4 27.2 14.4 54.4 27.2 81.6 41.6-1.6 3.2-3.2 4.8-3.2 6.4-27.2-14.4-54.4-28.8-81.6-41.6zM635.2 899.2l-9.6-28.8c-6.4-16-11.2-33.6-17.6-49.6-1.6-4.8-3.2-4.8 3.2-6.4h3.2c3.2 11.2 8 22.4 11.2 32 4.8 16 11.2 30.4 16 46.4 1.6 4.8 1.6 4.8-3.2 6.4h-3.2zM470.4 192c1.6 3.2 0 6.4-1.6 9.6-4.8 8-12.8 16-20.8 22.4-1.6 1.6-3.2 1.6-3.2 3.2-11.2-8-16-14.4-14.4-20.8 14.4-1.6 25.6-12.8 40-14.4z" fill="#1A4D7B" p-id="3831"></path><path d="M620.8 788.8c-1.6 0-3.2 0-4.8 1.6 1.6-19.2 4.8-38.4 6.4-57.6h-4.8c-4.8 1.6-9.6 1.6-12.8 3.2-4.8 1.6-9.6 3.2-11.2 8 0 0 0 1.6-1.6 1.6v-6.4c1.6-9.6 1.6-9.6 9.6-11.2 8-1.6 16-3.2 25.6-4.8-1.6 22.4-3.2 44.8-6.4 65.6zM684.8 254.4c14.4 6.4 20.8 17.6 17.6 32-1.6 4.8-8 6.4-11.2 4.8-1.6-1.6-4.8-1.6-6.4-3.2-3.2-1.6-3.2-3.2-3.2-4.8v-12.8c0-6.4 0-11.2 3.2-16zM137.6 377.6c-1.6-1.6-1.6-1.6-3.2-1.6-3.2-1.6-4.8-3.2-9.6-3.2-6.4 0-11.2-4.8-14.4-9.6-1.6-1.6-1.6-3.2-3.2-6.4 3.2-1.6 6.4-1.6 9.6-3.2 4.8 0 9.6-1.6 14.4-1.6 1.6 0 3.2 0 4.8 1.6 1.6 0 1.6 1.6 3.2 1.6 4.8 6.4 4.8 8 1.6 14.4 0 3.2-1.6 4.8-3.2 8zM387.2 153.6v-8-11.2c0-4.8-1.6-8 1.6-12.8 1.6-1.6 3.2-3.2 6.4 0 4.8 4.8 8 9.6 12.8 14.4 3.2 4.8 3.2 11.2 0 16 0 0-1.6 1.6-3.2 1.6-6.4 1.6-11.2 1.6-17.6 0zM352 761.6c1.6 0 1.6 0 0 0 8 3.2 8 3.2 11.2-3.2 6.4-11.2 14.4-24 20.8-35.2 3.2-4.8 1.6-6.4-3.2-8h-1.6v-1.6c6.4 0 11.2 0 19.2 1.6-3.2 4.8-6.4 9.6-8 14.4-6.4 11.2-12.8 20.8-19.2 32l-1.6 1.6c-1.6 4.8-1.6 6.4 1.6 8l1.6 1.6c-6.4-1.6-14.4-6.4-20.8-11.2 0 1.6 0 0 0 0zM156.8 390.4c1.6 0 1.6 0 0 0 16 0 11.2 1.6 14.4 11.2 1.6 3.2-1.6 3.2-3.2 4.8-3.2 4.8-3.2 3.2-8 1.6-3.2-1.6-8-3.2-11.2-4.8 0 0-3.2-1.6-4.8-3.2-3.2-3.2-3.2-6.4 1.6-8 4.8-1.6 8 0 11.2-1.6zM374.4 201.6c0-6.4-1.6-12.8-1.6-19.2 0-1.6 0-3.2 1.6-4.8 1.6-4.8 4.8-4.8 8-1.6l6.4 6.4c3.2 3.2 3.2 8 3.2 12.8 0 0 0 1.6-1.6 1.6-4.8 3.2-9.6 4.8-16 4.8zM793.6 347.2c0-4.8 1.6-6.4 6.4-8 3.2-1.6 8-3.2 11.2-3.2 3.2-1.6 4.8 0 4.8 3.2 0 6.4-6.4 14.4-12.8 16-6.4 1.6-9.6-1.6-9.6-8z" fill="#1A4D7B" p-id="3832"></path><path d="M860.8 390.4c4.8-3.2 12.8 0 12.8-8-1.6-3.2-6.4-1.6-9.6-1.6-1.6 0-3.2 0-4.8-1.6 3.2-1.6 4.8-3.2 6.4-4.8 1.6 0 3.2-1.6 3.2-1.6h3.2c1.6 0 4.8 0 6.4 1.6l4.8 9.6c0 1.6-1.6 4.8-1.6 4.8-6.4 1.6-12.8 3.2-20.8 4.8v-3.2zM744 790.4c-6.4-8-11.2-16-17.6-24 6.4-3.2 11.2-8 17.6-11.2 4.8-1.6 8 1.6 11.2 4.8 1.6 1.6 3.2 3.2 4.8 6.4 3.2 8 1.6 12.8-4.8 16-3.2 1.6-6.4 4.8-11.2 8zM292.8 827.2c11.2-8 22.4-17.6 35.2-25.6-6.4 12.8-11.2 25.6-17.6 38.4-4.8-4.8-11.2-8-17.6-12.8zM452.8 769.6c4.8 6.4 8 9.6 11.2 16 3.2 6.4-1.6 12.8-8 14.4-4.8 0-9.6 0-11.2-4.8-3.2-4.8-1.6-11.2 0-16 1.6-4.8 4.8-6.4 8-9.6zM448 748.8c0-3.2 1.6-6.4 6.4-8 4.8-1.6 11.2 0 12.8 3.2 3.2 3.2 1.6 9.6-1.6 14.4-4.8 6.4-6.4 6.4-12.8 0-1.6-3.2-4.8-4.8-4.8-9.6zM524.8 752c0-6.4 3.2-11.2 6.4-12.8 4.8-1.6 8 0 12.8 4.8 4.8 6.4 6.4 12.8 6.4 20.8v1.6c-4.8 6.4-14.4 6.4-19.2 0-3.2-3.2-4.8-9.6-6.4-14.4z" fill="#FFFFFF" p-id="3833"></path></svg>